<svg width="207" height="225" viewBox="0 0 207 225" fill="none" xmlns="http://www.w3.org/2000/svg">
<g clip-path="url(#clip0_2_45)">
<path d="M3.49004 156.243C17.1644 161.466 70.7151 165.75 84.5446 145.144C90.2993 136.57 93.8659 121.828 90.7854 112.166C84.1701 91.4183 50.938 93.4081 61.245 120.06C67.0254 135.006 86.6595 137.741 100.606 139.472C120.237 140.215 120.237 140.215 139.814 130.734C164.653 116.528 182.648 85.2587 179.553 85.1337" stroke="#594D42" stroke-width="2" stroke-linecap="round"/>
<path d="M193.764 72.3755C190.565 72.3648 165.996 73.1166 169.02 72.6119C172.978 71.9508 177.087 71.6943 180.989 70.527C185.605 69.1459 190.371 68.9801 194.855 67.0869C198.79 65.4255 191.035 87.3479 188.9 90.8434" stroke="#594D42" stroke-width="2" stroke-linecap="round"/>
</g>
<defs>
<clipPath id="clip0_2_45">
<rect width="129" height="184.312" fill="white" transform="matrix(0.853377 0.521294 0.521294 -0.853377 0 157.287)"/>
</clipPath>
</defs>
</svg>
